<svg xmlns="http://www.w3.org/2000/svg" width="400" height="300" viewBox="0 0 400 300">
  <defs>
    <style>
      .cls-1 {
        fill: #036270;
        fill-rule: evenodd;
      }
    </style>
  </defs>
  <path id="DND" class="cls-1" d="M142.945,221.417a29,29,0,0,0,9.347-1.19,11.005,11.005,0,0,0,5.379-4.015,12.9,12.9,0,0,0,2.349-7.681,13.829,13.829,0,0,0-1.238-5.776,10.989,10.989,0,0,0-3.428-4.253,13.164,13.164,0,0,0-4.9-2.19,35.157,35.157,0,0,0-7.506-.635H115.9v1.016a3.265,3.265,0,0,1,1.587.825,2.207,2.207,0,0,1,.444,1.492V235.7a2.151,2.151,0,0,1-.444,1.46,3.248,3.248,0,0,1-1.587.825V239h13.52v-1.016a3.073,3.073,0,0,1-1.571-.809,2.162,2.162,0,0,1-.46-1.476V221.417h15.552Zm-15.552-18.6h14.441q4.349,0,6.062.921a4.407,4.407,0,0,1,1.793,1.92,6.151,6.151,0,0,1,.683,2.872,6.214,6.214,0,0,1-.683,2.9,4.4,4.4,0,0,1-1.793,1.92q-1.746.921-6.062,0.921H127.393V202.818Zm49.734-3.808a2.271,2.271,0,0,1,.444-1.508,3,3,0,0,1,1.587-.809v-1.016h-13.52v1.016a3.265,3.265,0,0,1,1.587.825,2.207,2.207,0,0,1,.444,1.492v36.657a2.2,2.2,0,0,1-.444,1.492,3.248,3.248,0,0,1-1.587.825V239h38.117a2.207,2.207,0,0,1,1.492.444,3.252,3.252,0,0,1,.825,1.587h1.016v-11.2h-1.016a3.257,3.257,0,0,1-.825,1.587,2.207,2.207,0,0,1-1.492.444H177.127V199.01Zm78.647-1.492a3.26,3.26,0,0,1,1.587-.825v-1.016H244.6v1.016a3.256,3.256,0,0,1,1.586.825,2.207,2.207,0,0,1,.445,1.492v21.613a26.964,26.964,0,0,1-.413,5.539,6.479,6.479,0,0,1-1.523,3q-3.048,3.237-10.442,3.237-7.363,0-10.41-3.237a6.314,6.314,0,0,1-1.555-3,26.892,26.892,0,0,1-.413-5.539V199.01a2.24,2.24,0,0,1,.453-1.508,3.04,3.04,0,0,1,1.578-.809v-1.016h-13.52v1.016a3.265,3.265,0,0,1,1.587.825,2.207,2.207,0,0,1,.444,1.492v24.28a22.977,22.977,0,0,0,1.206,7.871,10.173,10.173,0,0,0,4.443,5.268q5.492,3.333,15.838,3.333,14.313,0,18.884-6.158,2.54-3.428,2.539-10.314V199.01A2.207,2.207,0,0,1,255.774,197.518Zm47.925,1.35a2.614,2.614,0,0,1-1.555.733,9.788,9.788,0,0,1-2.253-.733,58.582,58.582,0,0,0-8.951-3.107,33.681,33.681,0,0,0-7.744-.846q-9.9,0-14.853,4.733a12,12,0,0,0-3.777,9.085,11.558,11.558,0,0,0,1.492,5.908,10.554,10.554,0,0,0,4.538,4.288,17.907,17.907,0,0,0,4.063,1.477,67.187,67.187,0,0,0,6.95.969l4.888,0.507a30.835,30.835,0,0,1,6.538,1.171,3.174,3.174,0,0,1,2.317,3.073,4.515,4.515,0,0,1-.984,2.741,6.992,6.992,0,0,1-2.634,2.106,16.605,16.605,0,0,1-7.2,1.425,27.756,27.756,0,0,1-8.188-1.333,17.318,17.318,0,0,1-6.38-3.173,3.5,3.5,0,0,1-1.364-2.635v-0.412l-0.921-.445-4.7,10.633,0.92,0.476a2.669,2.669,0,0,1,1.3-.7,9.04,9.04,0,0,1,2.126.825,38.074,38.074,0,0,0,16.98,4.126,33.188,33.188,0,0,0,8.982-1.174q5.618-1.554,8.284-4.789a12.34,12.34,0,0,0,2.951-8.118,12.086,12.086,0,0,0-1.253-5.423,10.873,10.873,0,0,0-3.412-4.091,16.883,16.883,0,0,0-4.872-2.316,40.98,40.98,0,0,0-7.189-1.3l-4.983-.507a46.249,46.249,0,0,1-6.538-.951q-2.95-.888-2.951-3.329a4.014,4.014,0,0,1,1.158-2.759,7.091,7.091,0,0,1,3.031-1.9,19.467,19.467,0,0,1,5.935-.824,22.632,22.632,0,0,1,13.267,3.935q1.841,1.239,1.841,2.317c0,0.127-.011.3-0.032,0.508l0.889,0.508,5.173-10.2ZM132.491,174.159a3.243,3.243,0,0,1-1.587.825V176h24.168a38.182,38.182,0,0,0,9.878-1.063,17.286,17.286,0,0,0,6.765-3.539q6.891-5.871,6.891-17.075a25.176,25.176,0,0,0-2.318-11.14,17.388,17.388,0,0,0-9.02-8.7q-4.255-1.809-12.2-1.809H130.9v1.016a3.26,3.26,0,0,1,1.587.825,2.207,2.207,0,0,1,.444,1.492v36.657A2.2,2.2,0,0,1,132.491,174.159Zm9.9-34.341h11.885a22.4,22.4,0,0,1,6.926.873,10.229,10.229,0,0,1,4.449,2.936q3.3,3.714,3.305,10.7,0,9.648-6.133,12.981-2.86,1.556-8.547,1.555H142.393V139.818Zm77.981,31.58q1.554,1.587,1.555,2.222a1.386,1.386,0,0,1-1.333,1.364V176h13.648v-1.016a3.239,3.239,0,0,1-1.587-.825,2.2,2.2,0,0,1-.445-1.492V135.978a2.148,2.148,0,0,1,.445-1.46,3.255,3.255,0,0,1,1.587-.825v-1.016H221.517v1.016a3.265,3.265,0,0,1,1.587.825,2.153,2.153,0,0,1,.444,1.46v25.708l-23.9-24.851a2.578,2.578,0,0,1-.889-1.682,1.5,1.5,0,0,1,1.365-1.46v-1.016H185.4v1.016a3.255,3.255,0,0,1,1.587.825,2.153,2.153,0,0,1,.445,1.46v36.689a2.2,2.2,0,0,1-.445,1.492,3.239,3.239,0,0,1-1.587.825V176h12.727v-1.016a3.239,3.239,0,0,1-1.586-.825,2.2,2.2,0,0,1-.445-1.492V146.325Zm23.264,2.761a3.239,3.239,0,0,1-1.587.825V176H266.22a38.173,38.173,0,0,0,9.877-1.063,17.286,17.286,0,0,0,6.765-3.539q6.891-5.871,6.892-17.075a25.162,25.162,0,0,0-2.319-11.14,17.382,17.382,0,0,0-9.019-8.7q-4.257-1.809-12.2-1.809H242.051v1.016a3.255,3.255,0,0,1,1.587.825,2.207,2.207,0,0,1,.444,1.492v36.657A2.2,2.2,0,0,1,243.638,174.159Zm9.9-34.341h11.884a22.4,22.4,0,0,1,6.927.873,10.234,10.234,0,0,1,4.449,2.936q3.3,3.714,3.3,10.7,0,9.648-6.133,12.981-2.859,1.556-8.547,1.555H253.541V139.818Z"/>
  <path id="VORMTAG_1" data-name="VORMTAG 1" class="cls-1" d="M102.2,132.144c11-.192,19.231,5.192,22.808,12.244,1.234,2.432,1.134,5.4,1.14,8.9,0.022,12.217-5.918,19.19-15.4,21.705-15.086,4-31.506-11-27.369-25.6,2.045-7.222,6.537-12.832,13.115-15.583C98.414,133.013,100.575,133.164,102.2,132.144Zm5.7,10.018c-0.5,8.089-5.058,14.7-6.272,22.817h1.711c0.293-5.3,4.681-18.255,6.842-22.817H107.9Zm6.272,6.122V149.4c1.869,1.123,3.514,2.454,3.992,5.008-2.139.9-2.411,2.76-4.562,3.9v0.557h0.57v0.556h0.571v-0.556c2.137-1.379,3.3-3.23,5.7-4.453v-0.556h-0.571C118.877,151.611,116.223,149.535,114.176,148.284Zm-19.386.556-4.562,5.009,6.272,5.565c1.541-1.295-3.17-3.826-2.851-6.122,0.215-1.548,2.793-2.6,3.421-4.452H94.79Z"/>
  <path id="DING_1" data-name="DING 1" class="cls-1" d="M20.277,14.45H379.723V294.019H347.63V282.983h22.007V25.485H30.363v257.5H52.37v11.036H20.277V14.45Z"/>
  <path id="RECHTHOEK_1" data-name="RECHTHOEK 1" class="cls-1" d="M49.188,180.7H350.812v6.177H49.188V180.7Z"/>
</svg>
